<svg width="58" height="58" viewBox="0 0 58 58" fill="none" xmlns="http://www.w3.org/2000/svg">
<g filter="url(#filter0_d_378_454)">
<rect x="4" width="50" height="50" rx="25" fill="#F1F1F1" shape-rendering="crispEdges"/>
<path d="M29 26.75L22.875 32.875C22.6458 33.1042 22.3542 33.2188 22 33.2188C21.6458 33.2188 21.3542 33.1042 21.125 32.875C20.8958 32.6458 20.7812 32.3542 20.7812 32C20.7812 31.6458 20.8958 31.3542 21.125 31.125L27.25 25L21.125 18.875C20.8958 18.6458 20.7812 18.3542 20.7812 18C20.7812 17.6458 20.8958 17.3542 21.125 17.125C21.3542 16.8958 21.6458 16.7812 22 16.7812C22.3542 16.7812 22.6458 16.8958 22.875 17.125L29 23.25L35.125 17.125C35.3542 16.8958 35.6458 16.7812 36 16.7812C36.3542 16.7812 36.6458 16.8958 36.875 17.125C37.1042 17.3542 37.2188 17.6458 37.2188 18C37.2188 18.3542 37.1042 18.6458 36.875 18.875L30.75 25L36.875 31.125C37.1042 31.3542 37.2188 31.6458 37.2188 32C37.2188 32.3542 37.1042 32.6458 36.875 32.875C36.6458 33.1042 36.3542 33.2188 36 33.2188C35.6458 33.2188 35.3542 33.1042 35.125 32.875L29 26.75Z" fill="black"/>
</g>
<defs>
<filter id="filter0_d_378_454" x="0" y="0" width="58" height="58" filterUnits="userSpaceOnUse" color-interpolation-filters="sRGB">
<feFlood flood-opacity="0" result="BackgroundImageFix"/>
<feColorMatrix in="SourceAlpha" type="matrix" values="0 0 0 0 0 0 0 0 0 0 0 0 0 0 0 0 0 0 127 0" result="hardAlpha"/>
<feOffset dy="4"/>
<feGaussianBlur stdDeviation="2"/>
<feComposite in2="hardAlpha" operator="out"/>
<feColorMatrix type="matrix" values="0 0 0 0 0 0 0 0 0 0 0 0 0 0 0 0 0 0 0.15 0"/>
<feBlend mode="normal" in2="BackgroundImageFix" result="effect1_dropShadow_378_454"/>
<feBlend mode="normal" in="SourceGraphic" in2="effect1_dropShadow_378_454" result="shape"/>
</filter>
</defs>
</svg>
